<?xml version="1.0" encoding="UTF-8"?>
<svg width="77px" height="72px" viewBox="0 0 77 72" version="1.1" xmlns="http://www.w3.org/2000/svg" xmlns:xlink="http://www.w3.org/1999/xlink">
    <!-- Generator: Sketch 52.3 (67297) - http://www.bohemiancoding.com/sketch -->
    <title>Group 8</title>
    <desc>Created with Sketch.</desc>
    <g id="Symbols" stroke="none" stroke-width="1" fill="none" fill-rule="evenodd">
        <g id="Configure-Info-Card" transform="translate(-34.000000, -136.000000)">
            <g id="SettingPanel">
                <g id="Group-15" transform="translate(20.000000, 127.000000)">
                    <g id="Group-8" transform="translate(14.000000, 9.000000)">
                        <circle id="Oval" fill="#4D545B" fill-rule="nonzero" cx="39" cy="15" r="15"></circle>
                        <rect id="Rectangle" fill="#838C94" fill-rule="nonzero" x="19" y="36" width="40" height="3" rx="1"></rect>
                        <rect id="Rectangle" fill="#4D545B" fill-rule="nonzero" x="24" y="43" width="30" height="2" rx="1"></rect>
                        <rect id="Rectangle" fill="#838C94" fill-rule="nonzero" x="29" y="66" width="20" height="6" rx="1"></rect>
                        <rect id="Rectangle" fill="#4D545B" fill-rule="nonzero" x="0" y="51" width="77" height="2" rx="1"></rect>
                        <rect id="Rectangle" fill="#4D545B" fill-rule="nonzero" x="0" y="58" width="40" height="2" rx="1"></rect>
                        <g id="landscape" transform="translate(32.000000, 11.000000)"></g>
                        <path d="M40.2727273,11 L37.8545455,13.9166667 L39.7,16.1333333 L38.6818182,16.8333333 C37.6,15.55 35.8181818,13.3333333 35.8181818,13.3333333 L32,18 L46,18 L40.2727273,11 L40.2727273,11 Z" id="Shape" fill="#000000"></path>
                    </g>
                </g>
            </g>
        </g>
    </g>
</svg>