<?xml version="1.0" encoding="UTF-8"?>
<svg width="16px" height="16px" viewBox="0 0 16 16" version="1.1" xmlns="http://www.w3.org/2000/svg" xmlns:xlink="http://www.w3.org/1999/xlink">
    <!-- Generator: Sketch 52.3 (67297) - http://www.bohemiancoding.com/sketch -->
    <title>Widget_Text</title>
    <desc>Created with Sketch.</desc>
    <g id="Style" stroke="none" stroke-width="1" fill="none" fill-rule="evenodd">
        <g id="UI-icons" transform="translate(-1037.000000, -737.000000)" fill="#FFFFFF" fill-rule="nonzero">
            <path d="M1039,738 C1038.44772,738 1038,738.447715 1038,739 L1038,751 C1038,751.552285 1038.44772,752 1039,752 L1051,752 C1051.55228,752 1052,751.552285 1052,751 L1052,739 C1052,738.447715 1051.55228,738 1051,738 L1039,738 Z M1039,737 L1051,737 C1052.10457,737 1053,737.895431 1053,739 L1053,751 C1053,752.104569 1052.10457,753 1051,753 L1039,753 C1037.89543,753 1037,752.104569 1037,751 L1037,739 C1037,737.895431 1037.89543,737 1039,737 Z M1044.5,748 L1044.5,742 L1042,742 L1042,742.5 C1042,742.776142 1041.77614,743 1041.5,743 C1041.22386,743 1041,742.776142 1041,742.5 L1041,741.5 C1041,741.223858 1041.22386,741 1041.5,741 L1048.5,741 C1048.77614,741 1049,741.223858 1049,741.5 L1049,742.5 C1049,742.776142 1048.77614,743 1048.5,743 C1048.22386,743 1048,742.776142 1048,742.5 L1048,742 L1045.5,742 L1045.5,748 L1046,748 C1046.27614,748 1046.5,748.223858 1046.5,748.5 C1046.5,748.776142 1046.27614,749 1046,749 L1044,749 C1043.72386,749 1043.5,748.776142 1043.5,748.5 C1043.5,748.223858 1043.72386,748 1044,748 L1044.5,748 Z" id="Widget_Text"></path>
        </g>
    </g>
</svg>