<?xml version="1.0" encoding="UTF-8"?>
<svg width="16px" height="16px" viewBox="0 0 16 16" version="1.1" xmlns="http://www.w3.org/2000/svg" xmlns:xlink="http://www.w3.org/1999/xlink">
    <!-- Generator: Sketch 55.2 (78181) - https://sketchapp.com -->
    <title>widget-button</title>
    <desc>Created with Sketch.</desc>
    <g id="Style" stroke="none" stroke-width="1" fill="none" fill-rule="evenodd">
        <g id="0-UI-icons" transform="translate(-209.000000, -754.000000)" fill="#FFFFFF" fill-rule="nonzero">
            <path d="M221.933852,763 L223,763 C223.552285,763 224,762.552285 224,762 L224,756 C224,755.447715 223.552285,755 223,755 L211,755 C210.447715,755 210,755.447715 210,756 L210,762 C210,762.552285 210.447715,763 211,763 L212.276702,763 C212.354749,762.860636 212.449256,762.741539 212.560159,762.646447 C213.082676,762.198423 213.787186,762.060905 214.536456,762.610042 L214.536456,759.5 C214.536456,758.671573 215.252501,758 216.135787,758 C217.019073,758 217.735118,758.671573 217.735118,759.5 L217.735118,761.706688 L221.109065,762.360733 C221.495409,762.421125 221.804218,762.671724 221.933852,763 Z M212.009669,764 L211,764 C209.895431,764 209,763.104569 209,762 L209,756 C209,754.895431 209.895431,754 211,754 L223,754 C224.104569,754 225,754.895431 225,756 L225,762 C225,763.104569 224.104569,764 223,764 L222,764 L222,765 C222,766.130482 222,767.72265 220.7741,768.911972 C219.651687,770.000895 218.811116,770 217.735118,770 C216.668897,770 214.905121,769.898539 213.559771,768.27735 C212.433738,766.920445 211.921693,765.223407 212.009669,764 Z M216.668897,761.733445 L216.668897,759.5 C216.668897,759.223858 216.430215,759 216.135787,759 C215.841358,759 215.602676,759.223858 215.602676,759.5 L215.602676,764 C215.602676,764.276142 215.363995,764.5 215.069566,764.5 C214.85329,764.5 214.667094,764.379211 214.583486,764.205637 C214.14081,763.348699 213.749342,763.002444 213.314091,763.353553 C212.87581,763.707107 212.90432,766.135953 214.44692,767.72265 C215.546394,768.853553 216.668897,769 217.735118,769 C218.781749,769 219.552711,768.614249 220.023703,768.146447 C220.933779,767.242533 220.933779,765.869518 220.933779,765 L220.933779,763.745092 C220.933779,763.505918 220.764398,763.300237 220.529663,763.254371 L217.073013,762.578962 C216.838278,762.533096 216.668897,762.327416 216.668897,762.088242 L216.668897,761.733445 Z" id="widget-button"></path>
        </g>
    </g>
</svg>