<?xml version="1.0" encoding="UTF-8"?>
<svg width="15px" height="16px" viewBox="0 0 15 16" version="1.1" xmlns="http://www.w3.org/2000/svg" xmlns:xlink="http://www.w3.org/1999/xlink">
    <!-- Generator: Sketch 52.3 (67297) - http://www.bohemiancoding.com/sketch -->
    <title>Widget_Events</title>
    <desc>Created with Sketch.</desc>
    <g id="Style" stroke="none" stroke-width="1" fill="none" fill-rule="evenodd">
        <g id="UI-icons" transform="translate(-1101.000000, -788.000000)" fill="#FFFFFF" fill-rule="nonzero">
            <path d="M1112,790 L1112,790.5 C1112,790.776142 1111.77614,791 1111.5,791 C1111.22386,791 1111,790.776142 1111,790.5 L1111,790 L1106,790 L1106,790.5 C1106,790.776142 1105.77614,791 1105.5,791 C1105.22386,791 1105,790.776142 1105,790.5 L1105,790 L1103,790 C1102.44772,790 1102,790.447715 1102,791 L1102,802 C1102,802.552285 1102.44772,803 1103,803 L1114,803 C1114.55228,803 1115,802.552285 1115,802 L1115,791 C1115,790.447715 1114.55228,790 1114,790 L1112,790 Z M1105,789 L1105,788.5 C1105,788.223858 1105.22386,788 1105.5,788 C1105.77614,788 1106,788.223858 1106,788.5 L1106,789 L1111,789 L1111,788.5 C1111,788.223858 1111.22386,788 1111.5,788 C1111.77614,788 1112,788.223858 1112,788.5 L1112,789 L1114,789 C1115.10457,789 1116,789.895431 1116,791 L1116,802 C1116,803.104569 1115.10457,804 1114,804 L1103,804 C1101.89543,804 1101,803.104569 1101,802 L1101,791 C1101,789.895431 1101.89543,789 1103,789 L1105,789 Z M1102,793 L1115,793 L1115,794 L1102,794 L1102,793 Z M1104,796.5 L1105,796.5 C1105.27614,796.5 1105.5,796.723858 1105.5,797 C1105.5,797.276142 1105.27614,797.5 1105,797.5 L1104,797.5 C1103.72386,797.5 1103.5,797.276142 1103.5,797 C1103.5,796.723858 1103.72386,796.5 1104,796.5 Z M1108,796.5 L1109,796.5 C1109.27614,796.5 1109.5,796.723858 1109.5,797 C1109.5,797.276142 1109.27614,797.5 1109,797.5 L1108,797.5 C1107.72386,797.5 1107.5,797.276142 1107.5,797 C1107.5,796.723858 1107.72386,796.5 1108,796.5 Z M1112,796.5 L1113,796.5 C1113.27614,796.5 1113.5,796.723858 1113.5,797 C1113.5,797.276142 1113.27614,797.5 1113,797.5 L1112,797.5 C1111.72386,797.5 1111.5,797.276142 1111.5,797 C1111.5,796.723858 1111.72386,796.5 1112,796.5 Z M1104,799.5 L1105,799.5 C1105.27614,799.5 1105.5,799.723858 1105.5,800 C1105.5,800.276142 1105.27614,800.5 1105,800.5 L1104,800.5 C1103.72386,800.5 1103.5,800.276142 1103.5,800 C1103.5,799.723858 1103.72386,799.5 1104,799.5 Z M1108,799.5 L1109,799.5 C1109.27614,799.5 1109.5,799.723858 1109.5,800 C1109.5,800.276142 1109.27614,800.5 1109,800.5 L1108,800.5 C1107.72386,800.5 1107.5,800.276142 1107.5,800 C1107.5,799.723858 1107.72386,799.5 1108,799.5 Z M1112,799.5 L1113,799.5 C1113.27614,799.5 1113.5,799.723858 1113.5,800 C1113.5,800.276142 1113.27614,800.5 1113,800.5 L1112,800.5 C1111.72386,800.5 1111.5,800.276142 1111.5,800 C1111.5,799.723858 1111.72386,799.5 1112,799.5 Z" id="Widget_Events"></path>
        </g>
    </g>
</svg>