<?xml version="1.0" encoding="UTF-8"?>
<svg width="16px" height="16px" viewBox="0 0 16 16" version="1.1" xmlns="http://www.w3.org/2000/svg" xmlns:xlink="http://www.w3.org/1999/xlink">
    <!-- Generator: Sketch 55.1 (78136) - https://sketchapp.com -->
    <title>widget-sidebar-vertical</title>
    <desc>Created with Sketch.</desc>
    <g id="Style" stroke="none" stroke-width="1" fill="none" fill-rule="evenodd">
        <g id="0-UI-icons" transform="translate(-461.000000, -888.000000)" fill="#FFFFFF" fill-rule="nonzero">
            <path d="M476,890 L462,890 L462,902 C462,902.552285 462.447715,903 463,903 L475,903 C475.552285,903 476,902.552285 476,902 L476,890 Z M463,888 L475,888 C476.104569,888 477,888.895431 477,890 L477,902 C477,903.104569 476.104569,904 475,904 L463,904 C461.895431,904 461,903.104569 461,902 L461,890 C461,888.895431 461.895431,888 463,888 Z M462,897 L476,897 L476,898 L462,898 L462,897 Z M469,894.160189 L467.314049,895.859246 C467.127824,896.046918 466.825894,896.046918 466.639669,895.859246 C466.453444,895.671573 466.453444,895.367295 466.639669,895.179623 L468.66281,893.140754 C468.849035,892.953082 469.150965,892.953082 469.33719,893.140754 L471.360331,895.179623 C471.546556,895.367295 471.546556,895.671573 471.360331,895.859246 C471.174106,896.046918 470.872176,896.046918 470.685951,895.859246 L469,894.160189 Z" id="widget-sidebar-vertical"></path>
        </g>
    </g>
</svg>