<?xml version="1.0" encoding="UTF-8"?>
<svg width="109px" height="90px" viewBox="0 0 109 90" version="1.1" xmlns="http://www.w3.org/2000/svg" xmlns:xlink="http://www.w3.org/1999/xlink">
    <!-- Generator: Sketch 54.1 (76490) - https://sketchapp.com -->
    <title>style 1</title>
    <desc>Created with Sketch.</desc>
    <g id="Style" stroke="none" stroke-width="1" fill="none" fill-rule="evenodd">
        <g id="0-UI-icons" transform="translate(-1109.000000, -847.000000)">
            <g id="Templates" transform="translate(990.000000, 847.000000)">
                <g id="T-2" transform="translate(119.000000, 0.000000)">
                    <g id="style02" transform="translate(1.000000, 1.000000)">
                        <path d="M16,70 L91,70 C91.5522847,70 92,70.4477153 92,71 C92,71.5522847 91.5522847,72 91,72 L16,72 C15.4477153,72 15,71.5522847 15,71 C15,70.4477153 15.4477153,70 16,70 Z M16,77 L54,77 C54.5522847,77 55,77.4477153 55,78 C55,78.5522847 54.5522847,79 54,79 L16,79 C15.4477153,79 15,78.5522847 15,78 C15,77.4477153 15.4477153,77 16,77 Z" id="Text" fill="#353B40" fill-rule="nonzero"></path>
                        <rect id="Title" fill="#4D545B" fill-rule="nonzero" x="33" y="59" width="40" height="3" rx="1.5"></rect>
                        <g id="Image">
                            <rect id="Background" fill="#4D545B" x="0" y="0" width="107" height="50"></rect>
                            <polygon id="image-14" fill="#000000" points="51.8867925 25.3584906 55 21 60 28 46 28 50 23"></polygon>
                        </g>
                    </g>
                </g>
            </g>
        </g>
    </g>
</svg>