<?xml version="1.0" encoding="UTF-8"?>
<svg width="16px" height="14px" viewBox="0 0 16 14" version="1.1" xmlns="http://www.w3.org/2000/svg" xmlns:xlink="http://www.w3.org/1999/xlink">
    <!-- Generator: Sketch 52.4 (67378) - http://www.bohemiancoding.com/sketch -->
    <title>Desktop</title>
    <desc>Created with Sketch.</desc>
    <g id="Symbols" stroke="none" stroke-width="1" fill="none" fill-rule="evenodd">
        <g id="TopBar" transform="translate(-956.000000, -23.000000)" fill-rule="nonzero">
            <g id="Desktop/Mobile">
                <g transform="translate(948.000000, 13.000000)">
                    <g id="Desktop" transform="translate(8.000000, 9.000000)">
                        <path d="M12.8,1.06666667 L3.2,1.06666667 C1.09066667,1.06666667 0.533333333,2.8112 0.533333333,3.73333333 L0.533333333,10.1333333 C0.533333333,12.2426667 2.27786667,12.8 3.2,12.8 L6.93333333,12.8 L6.93333333,13.8666667 L5.33333333,13.8666667 C5.03893333,13.8666667 4.8,14.1050667 4.8,14.4 C4.8,14.6949333 5.03893333,14.9333333 5.33333333,14.9333333 L10.6666667,14.9333333 C10.9616,14.9333333 11.2,14.6949333 11.2,14.4 C11.2,14.1050667 10.9616,13.8666667 10.6666667,13.8666667 L9.06666667,13.8666667 L9.06666667,12.8 L12.8,12.8 C14.9093333,12.8 15.4666667,11.0554667 15.4666667,10.1333333 L15.4666667,3.73333333 C15.4666667,1.624 13.7221333,1.06666667 12.8,1.06666667 Z M14.4,10.1301333 C14.3968,10.3978667 14.3056,11.7333333 12.8,11.7333333 L3.20266667,11.7333333 C2.93493333,11.7301333 1.6,11.6389333 1.6,10.1333333 L1.6,3.736 C1.6032,3.46826667 1.6944,2.13333333 3.2,2.13333333 L12.7968,2.13333333 C13.0645333,2.13653333 14.4,2.22773333 14.4,3.73333333 L14.4,10.1301333 Z" id="Shape" fill="#FFFFFF"></path>
                        <rect id="Rectangle" x="0" y="0" width="16" height="16"></rect>
                    </g>
                </g>
            </g>
        </g>
    </g>
</svg>