<?xml version="1.0" encoding="UTF-8"?>
<svg width="16px" height="16px" viewBox="0 0 16 16" version="1.1" xmlns="http://www.w3.org/2000/svg" xmlns:xlink="http://www.w3.org/1999/xlink">
    <!-- Generator: Sketch 52.3 (67297) - http://www.bohemiancoding.com/sketch -->
    <title>Widget_Annotations</title>
    <desc>Created with Sketch.</desc>
    <g id="Style" stroke="none" stroke-width="1" fill="none" fill-rule="evenodd">
        <g id="UI-icons" transform="translate(-1127.000000, -762.000000)" fill="#FFFFFF" fill-rule="nonzero">
            <path d="M1128,775.825779 L1130.13008,774 L1141,774 C1141.55228,774 1142,773.552285 1142,773 L1142,764 C1142,763.447715 1141.55228,763 1141,763 L1129,763 C1128.44772,763 1128,763.447715 1128,764 L1128,775.825779 Z M1129,762 L1141,762 C1142.10457,762 1143,762.895431 1143,764 L1143,773 C1143,774.104569 1142.10457,775 1141,775 L1130.5,775 L1127,778 L1127,764 C1127,762.895431 1127.89543,762 1129,762 Z M1131.5,766 L1138.5,766 C1138.77614,766 1139,766.223858 1139,766.5 C1139,766.776142 1138.77614,767 1138.5,767 L1131.5,767 C1131.22386,767 1131,766.776142 1131,766.5 C1131,766.223858 1131.22386,766 1131.5,766 Z M1131.5,768 L1138.5,768 C1138.77614,768 1139,768.223858 1139,768.5 C1139,768.776142 1138.77614,769 1138.5,769 L1131.5,769 C1131.22386,769 1131,768.776142 1131,768.5 C1131,768.223858 1131.22386,768 1131.5,768 Z M1131.5,770 L1135.5,770 C1135.77614,770 1136,770.223858 1136,770.5 C1136,770.776142 1135.77614,771 1135.5,771 L1131.5,771 C1131.22386,771 1131,770.776142 1131,770.5 C1131,770.223858 1131.22386,770 1131.5,770 Z" id="Widget_Annotations"></path>
        </g>
    </g>
</svg>