<?xml version="1.0" encoding="UTF-8"?>
<svg width="16px" height="16px" viewBox="0 0 16 16" version="1.1" xmlns="http://www.w3.org/2000/svg" xmlns:xlink="http://www.w3.org/1999/xlink">
    <!-- Generator: Sketch 52.3 (67297) - http://www.bohemiancoding.com/sketch -->
    <title>Widget_Html</title>
    <desc>Created with Sketch.</desc>
    <g id="Style" stroke="none" stroke-width="1" fill="none" fill-rule="evenodd">
        <g id="UI-icons" transform="translate(-1127.000000, -737.000000)" fill="#FFFFFF" fill-rule="nonzero">
            <path d="M1129,738 C1128.44772,738 1128,738.447715 1128,739 L1128,751 C1128,751.552285 1128.44772,752 1129,752 L1141,752 C1141.55228,752 1142,751.552285 1142,751 L1142,739 C1142,738.447715 1141.55228,738 1141,738 L1129,738 Z M1129,737 L1141,737 C1142.10457,737 1143,737.895431 1143,739 L1143,751 C1143,752.104569 1142.10457,753 1141,753 L1129,753 C1127.89543,753 1127,752.104569 1127,751 L1127,739 C1127,737.895431 1127.89543,737 1129,737 Z M1132.85355,747.646447 C1133.04882,747.841709 1133.04882,748.158291 1132.85355,748.353553 C1132.65829,748.548816 1132.34171,748.548816 1132.14645,748.353553 L1129.14645,745.353553 C1128.95118,745.158291 1128.95118,744.841709 1129.14645,744.646447 L1132.14645,741.646447 C1132.34171,741.451184 1132.65829,741.451184 1132.85355,741.646447 C1133.04882,741.841709 1133.04882,742.158291 1132.85355,742.353553 L1130.20711,745 L1132.85355,747.646447 Z M1137.14645,747.646447 L1139.79289,745 L1137.14645,742.353553 C1136.95118,742.158291 1136.95118,741.841709 1137.14645,741.646447 C1137.34171,741.451184 1137.65829,741.451184 1137.85355,741.646447 L1140.85355,744.646447 C1141.04882,744.841709 1141.04882,745.158291 1140.85355,745.353553 L1137.85355,748.353553 C1137.65829,748.548816 1137.34171,748.548816 1137.14645,748.353553 C1136.95118,748.158291 1136.95118,747.841709 1137.14645,747.646447 Z M1135.98245,741.61926 C1136.24918,741.690731 1136.40747,741.964899 1136.336,742.231632 L1134.78309,748.027187 C1134.71162,748.29392 1134.43745,748.452211 1134.17071,748.38074 C1133.90398,748.309269 1133.74569,748.035101 1133.81716,747.768368 L1135.37008,741.972813 C1135.44155,741.70608 1135.71571,741.547789 1135.98245,741.61926 Z" id="Widget_Html"></path>
        </g>
    </g>
</svg>