<?xml version="1.0" encoding="UTF-8"?>
<svg width="16px" height="14px" viewBox="0 0 16 14" version="1.1" xmlns="http://www.w3.org/2000/svg" xmlns:xlink="http://www.w3.org/1999/xlink">
    <!-- Generator: Sketch 52.3 (67297) - http://www.bohemiancoding.com/sketch -->
    <title>Widget_Chart</title>
    <desc>Created with Sketch.</desc>
    <g id="Style" stroke="none" stroke-width="1" fill="none" fill-rule="evenodd">
        <g id="UI-icons" transform="translate(-1101.000000, -738.000000)" fill="#FFFFFF" fill-rule="nonzero">
            <path d="M1101.5,751 L1116.5,751 C1116.77614,751 1117,751.223858 1117,751.5 C1117,751.776142 1116.77614,752 1116.5,752 L1101.5,752 C1101.22386,752 1101,751.776142 1101,751.5 C1101,751.223858 1101.22386,751 1101.5,751 Z M1107,739 C1106.72386,739 1106.5,739.223858 1106.5,739.5 L1106.5,748.5 C1106.5,748.776142 1106.72386,749 1107,749 C1107.27614,749 1107.5,748.776142 1107.5,748.5 L1107.5,739.5 C1107.5,739.223858 1107.27614,739 1107,739 Z M1107,738 C1107.82843,738 1108.5,738.671573 1108.5,739.5 L1108.5,748.5 C1108.5,749.328427 1107.82843,750 1107,750 C1106.17157,750 1105.5,749.328427 1105.5,748.5 L1105.5,739.5 C1105.5,738.671573 1106.17157,738 1107,738 Z M1111,743 C1110.72386,743 1110.5,743.223858 1110.5,743.5 L1110.5,748.5 C1110.5,748.776142 1110.72386,749 1111,749 C1111.27614,749 1111.5,748.776142 1111.5,748.5 L1111.5,743.5 C1111.5,743.223858 1111.27614,743 1111,743 Z M1111,742 C1111.82843,742 1112.5,742.671573 1112.5,743.5 L1112.5,748.5 C1112.5,749.328427 1111.82843,750 1111,750 C1110.17157,750 1109.5,749.328427 1109.5,748.5 L1109.5,743.5 C1109.5,742.671573 1110.17157,742 1111,742 Z M1115,747 C1114.72386,747 1114.5,747.223858 1114.5,747.5 L1114.5,748.5 C1114.5,748.776142 1114.72386,749 1115,749 C1115.27614,749 1115.5,748.776142 1115.5,748.5 L1115.5,747.5 C1115.5,747.223858 1115.27614,747 1115,747 Z M1115,746 C1115.82843,746 1116.5,746.671573 1116.5,747.5 L1116.5,748.5 C1116.5,749.328427 1115.82843,750 1115,750 C1114.17157,750 1113.5,749.328427 1113.5,748.5 L1113.5,747.5 C1113.5,746.671573 1114.17157,746 1115,746 Z M1103,745 C1102.72386,745 1102.5,745.223858 1102.5,745.5 L1102.5,748.5 C1102.5,748.776142 1102.72386,749 1103,749 C1103.27614,749 1103.5,748.776142 1103.5,748.5 L1103.5,745.5 C1103.5,745.223858 1103.27614,745 1103,745 Z M1103,744 C1103.82843,744 1104.5,744.671573 1104.5,745.5 L1104.5,748.5 C1104.5,749.328427 1103.82843,750 1103,750 C1102.17157,750 1101.5,749.328427 1101.5,748.5 L1101.5,745.5 C1101.5,744.671573 1102.17157,744 1103,744 Z" id="Widget_Chart"></path>
        </g>
    </g>
</svg>