<?xml version="1.0" encoding="UTF-8"?>
<svg width="205px" height="70px" viewBox="0 0 205 70" version="1.1" xmlns="http://www.w3.org/2000/svg" xmlns:xlink="http://www.w3.org/1999/xlink">
    <!-- Generator: Sketch 52.3 (67297) - http://www.bohemiancoding.com/sketch -->
    <title>Group 10</title>
    <desc>Created with Sketch.</desc>
    <g id="Symbols" stroke="none" stroke-width="1" fill="none" fill-rule="evenodd">
        <g id="Configure-Info-Card" transform="translate(-20.000000, -227.000000)">
            <g id="SettingPanel">
                <g id="Group-13" transform="translate(20.000000, 227.000000)">
                    <g id="Group-10">
                        <g id="Group" transform="translate(169.000000, 16.000000)">
                            <path d="M18,36 C8.0588745,36 0,27.9411255 0,18 C0,8.0588745 8.0588745,0 18,0 C27.9411255,0 36,8.0588745 36,18 C36,27.9411255 27.9411255,36 18,36 Z M18,30 C24.627417,30 30,24.627417 30,18 C30,11.372583 24.627417,6 18,6 C11.372583,6 6,11.372583 6,18 C6,24.627417 11.372583,30 18,30 Z" id="Combined-Shape" fill="#838C94"></path>
                            <path d="M5.37262209,30.827683 L9.78856342,26.7506122 C11.9351505,28.765731 14.8234358,30 18,30 C24.627417,30 30,24.627417 30,18 C30,11.5064395 24.8422497,6.21753621 18.4,6.00654106 L18.4,0.00435666693 C28.1564043,0.217076339 36,8.1925532 36,18 C36,27.9411255 27.9411255,36 18,36 C13.0803802,36 8.6217271,34.0263672 5.37262209,30.827683 Z" id="Combined-Shape" fill="#4D545B"></path>
                        </g>
                        <rect id="Rectangle" fill="#4D545B" fill-rule="nonzero" x="0" y="0" width="70" height="70"></rect>
                        <rect id="Rectangle" fill="#838C94" fill-rule="nonzero" x="80" y="13" width="40" height="3" rx="1"></rect>
                        <g id="Group-11" transform="translate(80.000000, 49.000000)" fill-rule="nonzero">
                            <circle id="Oval" fill="#838C94" cx="4" cy="4" r="4"></circle>
                            <circle id="Oval-Copy" fill="#838C94" cx="32" cy="4" r="4"></circle>
                            <circle id="Oval-Copy-2" fill="#838C94" cx="59" cy="4" r="4"></circle>
                            <rect id="Rectangle" fill="#4D545B" x="12" y="3" width="10" height="2" rx="1"></rect>
                            <rect id="Rectangle-Copy-4" fill="#4D545B" x="40" y="3" width="10" height="2" rx="1"></rect>
                            <rect id="Rectangle-Copy-9" fill="#4D545B" x="67" y="3" width="10" height="2" rx="1"></rect>
                        </g>
                        <rect id="Rectangle" fill="#4D545B" fill-rule="nonzero" x="80" y="28" width="77" height="2" rx="1"></rect>
                        <rect id="Rectangle" fill="#4D545B" fill-rule="nonzero" x="80" y="35" width="60" height="2" rx="1"></rect>
                        <g id="landscape" transform="translate(28.000000, 31.000000)" fill="#000000">
                            <path d="M8.27272727,0 L5.85454545,2.91666667 L7.7,5.13333333 L6.68181818,5.83333333 C5.6,4.55 3.81818182,2.33333333 3.81818182,2.33333333 L0,7 L14,7 L8.27272727,0 L8.27272727,0 Z" id="Shape"></path>
                        </g>
                    </g>
                </g>
            </g>
        </g>
    </g>
</svg>