<?xml version="1.0" encoding="UTF-8"?>
<svg width="16px" height="16px" viewBox="0 0 16 16" version="1.1" xmlns="http://www.w3.org/2000/svg" xmlns:xlink="http://www.w3.org/1999/xlink">
    <!-- Generator: Sketch 52.3 (67297) - http://www.bohemiancoding.com/sketch -->
    <title>Widget_Image</title>
    <desc>Created with Sketch.</desc>
    <g id="Style" stroke="none" stroke-width="1" fill="none" fill-rule="evenodd">
        <g id="UI-icons" transform="translate(-1065.000000, -737.000000)" fill="#FFFFFF" fill-rule="nonzero">
            <path d="M1067.89979,752 L1075.98641,743.279303 L1080,747.292893 L1080,739 C1080,738.447715 1079.55228,738 1079,738 L1067,738 C1066.44772,738 1066,738.447715 1066,739 L1066,751 C1066,751.552285 1066.44772,752 1067,752 L1067.89979,752 Z M1069.26356,752 L1079,752 C1079.55228,752 1080,751.552285 1080,751 L1080,748.707107 L1076.01359,744.720697 L1069.26356,752 Z M1067,737 L1079,737 C1080.10457,737 1081,737.895431 1081,739 L1081,751 C1081,752.104569 1080.10457,753 1079,753 L1067,753 C1065.89543,753 1065,752.104569 1065,751 L1065,739 C1065,737.895431 1065.89543,737 1067,737 Z M1070,744.5 C1068.61929,744.5 1067.5,743.380712 1067.5,742 C1067.5,740.619288 1068.61929,739.5 1070,739.5 C1071.38071,739.5 1072.5,740.619288 1072.5,742 C1072.5,743.380712 1071.38071,744.5 1070,744.5 Z M1070,743.5 C1070.82843,743.5 1071.5,742.828427 1071.5,742 C1071.5,741.171573 1070.82843,740.5 1070,740.5 C1069.17157,740.5 1068.5,741.171573 1068.5,742 C1068.5,742.828427 1069.17157,743.5 1070,743.5 Z" id="Widget_Image"></path>
        </g>
    </g>
</svg>