<?xml version="1.0" encoding="UTF-8"?>
<svg width="16px" height="16px" viewBox="0 0 16 16" version="1.1" xmlns="http://www.w3.org/2000/svg" xmlns:xlink="http://www.w3.org/1999/xlink">
    <!-- Generator: Sketch 52.6 (67491) - http://www.bohemiancoding.com/sketch -->
    <title>account</title>
    <desc>Created with Sketch.</desc>
    <g id="Style" stroke="none" stroke-width="1" fill="none" fill-rule="evenodd">
        <g id="0-UI-icons" transform="translate(-865.000000, -300.000000)" fill="#000000" fill-rule="nonzero">
            <path d="M873,307 C874.104569,307 875,306.104569 875,305 C875,303.895431 874.104569,303 873,303 C871.895431,303 871,303.895431 871,305 C871,306.104569 871.895431,307 873,307 Z M873,308 C871.343146,308 870,306.656854 870,305 C870,303.343146 871.343146,302 873,302 C874.656854,302 876,303.343146 876,305 C876,306.656854 874.656854,308 873,308 Z M868.328417,313.213177 C869.567435,314.324223 871.2048,315 873,315 C874.795204,315 876.432572,314.32422 877.671591,313.21317 C876.939668,311.298934 875.093831,310 873,310 C870.906904,310 869.060807,311.29803 868.328417,313.213177 Z M867.577868,312.427582 C868.54104,310.401018 870.606907,309 873,309 C875.393093,309 877.45896,310.401018 878.422132,312.427582 C879.408372,311.221247 880,309.679714 880,308 C880,304.134007 876.865993,301 873,301 C869.134007,301 866,304.134007 866,308 C866,309.679714 866.591628,311.221247 867.577868,312.427582 Z M873,316 C868.581722,316 865,312.418278 865,308 C865,303.581722 868.581722,300 873,300 C877.418278,300 881,303.581722 881,308 C881,312.418278 877.418278,316 873,316 Z" id="account"></path>
        </g>
    </g>
</svg>