<?xml version="1.0" encoding="UTF-8"?>
<svg width="16px" height="16px" viewBox="0 0 16 16" version="1.1" xmlns="http://www.w3.org/2000/svg" xmlns:xlink="http://www.w3.org/1999/xlink">
    <!-- Generator: Sketch 55.1 (78136) - https://sketchapp.com -->
    <title>add-16</title>
    <desc>Created with Sketch.</desc>
    <g id="Style" stroke="none" stroke-width="1" fill="none" fill-rule="evenodd">
        <g id="0-UI-icons" transform="translate(-910.000000, -301.000000)" fill="#000000" fill-rule="nonzero">
            <path d="M917,308 L917,302 C917,301.447715 917.447715,301 918,301 C918.552285,301 919,301.447715 919,302 L919,308 L925,308 C925.552285,308 926,308.447715 926,309 C926,309.552285 925.552285,310 925,310 L919,310 L919,316 C919,316.552285 918.552285,317 918,317 C917.447715,317 917,316.552285 917,316 L917,310 L911,310 C910.447715,310 910,309.552285 910,309 C910,308.447715 910.447715,308 911,308 L917,308 Z" id="add-16"></path>
        </g>
    </g>
</svg>