<?xml version="1.0" encoding="UTF-8"?>
<svg width="16px" height="15px" viewBox="0 0 16 15" version="1.1" xmlns="http://www.w3.org/2000/svg" xmlns:xlink="http://www.w3.org/1999/xlink">
    <!-- Generator: Sketch 52.6 (67491) - http://www.bohemiancoding.com/sketch -->
    <title>app-view-list</title>
    <desc>Created with Sketch.</desc>
    <g id="Style" stroke="none" stroke-width="1" fill="none" fill-rule="evenodd">
        <g id="0-UI-icons" transform="translate(-172.000000, -245.000000)" fill="#000000" fill-rule="nonzero">
            <path d="M173,246 L173,248 L175,248 L175,246 L173,246 Z M173,245 L175,245 C175.552285,245 176,245.447715 176,246 L176,248 C176,248.552285 175.552285,249 175,249 L173,249 C172.447715,249 172,248.552285 172,248 L172,246 C172,245.447715 172.447715,245 173,245 Z M173,251.5 L173,253.5 L175,253.5 L175,251.5 L173,251.5 Z M173,250.5 L175,250.5 C175.552285,250.5 176,250.947715 176,251.5 L176,253.5 C176,254.052285 175.552285,254.5 175,254.5 L173,254.5 C172.447715,254.5 172,254.052285 172,253.5 L172,251.5 C172,250.947715 172.447715,250.5 173,250.5 Z M173,257 L173,259 L175,259 L175,257 L173,257 Z M173,256 L175,256 C175.552285,256 176,256.447715 176,257 L176,259 C176,259.552285 175.552285,260 175,260 L173,260 C172.447715,260 172,259.552285 172,259 L172,257 C172,256.447715 172.447715,256 173,256 Z M178,246 L178,248 L187,248 L187,246 L178,246 Z M178,245 L187,245 C187.552285,245 188,245.447715 188,246 L188,248 C188,248.552285 187.552285,249 187,249 L178,249 C177.447715,249 177,248.552285 177,248 L177,246 C177,245.447715 177.447715,245 178,245 Z M178,251.5 L178,253.5 L187,253.5 L187,251.5 L178,251.5 Z M178,250.5 L187,250.5 C187.552285,250.5 188,250.947715 188,251.5 L188,253.5 C188,254.052285 187.552285,254.5 187,254.5 L178,254.5 C177.447715,254.5 177,254.052285 177,253.5 L177,251.5 C177,250.947715 177.447715,250.5 178,250.5 Z M178,257 L178,259 L187,259 L187,257 L178,257 Z M178,256 L187,256 C187.552285,256 188,256.447715 188,257 L188,259 C188,259.552285 187.552285,260 187,260 L178,260 C177.447715,260 177,259.552285 177,259 L177,257 C177,256.447715 177.447715,256 178,256 Z" id="app-view-list"></path>
        </g>
    </g>
</svg>