<?xml version="1.0" encoding="UTF-8"?>
<svg width="16px" height="16px" viewBox="0 0 16 16" version="1.1" xmlns="http://www.w3.org/2000/svg" xmlns:xlink="http://www.w3.org/1999/xlink">
    <!-- Generator: Sketch 52.6 (67491) - http://www.bohemiancoding.com/sketch -->
    <title>app-view-card</title>
    <desc>Created with Sketch.</desc>
    <g id="Style" stroke="none" stroke-width="1" fill="none" fill-rule="evenodd">
        <g id="0-UI-icons" transform="translate(-136.000000, -245.000000)" fill="#000000" fill-rule="nonzero">
            <path d="M137,246 L137,251 L142,251 L142,246 L137,246 Z M137,245 L142,245 C142.552285,245 143,245.447715 143,246 L143,251 C143,251.552285 142.552285,252 142,252 L137,252 C136.447715,252 136,251.552285 136,251 L136,246 C136,245.447715 136.447715,245 137,245 Z M146,246 L146,251 L151,251 L151,246 L146,246 Z M146,245 L151,245 C151.552285,245 152,245.447715 152,246 L152,251 C152,251.552285 151.552285,252 151,252 L146,252 C145.447715,252 145,251.552285 145,251 L145,246 C145,245.447715 145.447715,245 146,245 Z M146,255 L146,260 L151,260 L151,255 L146,255 Z M146,254 L151,254 C151.552285,254 152,254.447715 152,255 L152,260 C152,260.552285 151.552285,261 151,261 L146,261 C145.447715,261 145,260.552285 145,260 L145,255 C145,254.447715 145.447715,254 146,254 Z M137,255 L137,260 L142,260 L142,255 L137,255 Z M137,254 L142,254 C142.552285,254 143,254.447715 143,255 L143,260 C143,260.552285 142.552285,261 142,261 L137,261 C136.447715,261 136,260.552285 136,260 L136,255 C136,254.447715 136.447715,254 137,254 Z" id="app-view-card"></path>
        </g>
    </g>
</svg>