<?xml version="1.0" encoding="UTF-8"?>
<svg width="16px" height="16px" viewBox="0 0 16 16" version="1.1" xmlns="http://www.w3.org/2000/svg" xmlns:xlink="http://www.w3.org/1999/xlink">
    <!-- Generator: Sketch 52.6 (67491) - http://www.bohemiancoding.com/sketch -->
    <title>app-preview</title>
    <desc>Created with Sketch.</desc>
    <g id="Style" stroke="none" stroke-width="1" fill="none" fill-rule="evenodd">
        <g id="0-UI-icons" transform="translate(-314.000000, -245.000000)" fill="#000000" fill-rule="nonzero">
            <path d="M316,246 C315.447715,246 315,246.447715 315,247 L315,259 C315,259.552285 315.447715,260 316,260 L328,260 C328.552285,260 329,259.552285 329,259 L329,247 C329,246.447715 328.552285,246 328,246 L316,246 Z M316,245 L328,245 C329.104569,245 330,245.895431 330,247 L330,259 C330,260.104569 329.104569,261 328,261 L316,261 C314.895431,261 314,260.104569 314,259 L314,247 C314,245.895431 314.895431,245 316,245 Z M320.5,250.049426 L320.5,255.950497 L324.502914,252.999962 L320.5,250.049426 Z M325.09981,253.802292 L321.01083,256.816267 C320.581429,257.132778 319.984688,257.030145 319.677973,256.58703 C319.562223,256.419806 319.5,256.219439 319.5,256.013937 L319.5,249.985987 C319.5,249.441441 319.92778,249 320.455473,249 C320.654615,249 320.848781,249.064211 321.01083,249.183656 L325.09981,252.197631 C325.529212,252.514142 325.628669,253.12994 325.321953,253.573055 C325.260669,253.661592 325.185607,253.739051 325.09981,253.802292 Z" id="app-preview"></path>
        </g>
    </g>
</svg>