<svg width="7" height="10" viewBox="0 0 7 10" xmlns="http://www.w3.org/2000/svg">
  <path d="M.857143 4.5h2.785714c.828427 0 1.5-.783502 1.5-1.75S4.471284 1 3.642857 1H.857143v3.5zm4.497643.140378C6.310747 5.004331 7 6.035175 7 7.25 7 8.768783 5.922685 10 4.59375 10H.875C.391751 10 0 9.552285 0 9V1c0-.552285.383756-1 .857143-1h2.785714C4.944671 0 6 1.231217 6 2.75c0 .732208-.245282 1.39758-.645214 1.890378zM3.642857 5.5H.875V9h3.71875C5.439436 9 6.125 8.216498 6.125 7.25S5.439436 5.5 4.59375 5.5h-.950893z"/>
</svg>