<svg width="9" height="10" viewBox="0 0 9 10" xmlns="http://www.w3.org/2000/svg">
  <path d="M3.26777 1.517767l-.840993-.84099c-.154822-.154822-.154822-.405838 0-.56066.154822-.154823.405838-.154823.56066 0L7.19239 4.321068c.61929.619288.61929 1.623352 0 2.24264L4.94975 8.806349c-.61929.619288-1.62336.619288-2.242643 0L.464466 6.563708c-.619288-.619288-.619288-1.623352 0-2.24264L3.26777 1.517767zm.56068.560635L1.19632 4.710534c-.063554.063554-.11584.137451-.154623.218532-.188958.395047-.02189.868477.373156 1.057435.804523.3848 1.609047.577207 2.413577.577207.80453 0 1.60906-.19241 2.41358-.577231.08108-.038782.15498-.091067.21853-.154619.30965-.30965.30966-.811696.00001-1.121351l-2.6321-2.632105zM7.98524 7c2.27665 2.92543.01184 3 0 3-2.22335-.246654.01316-3 0-3z"/>
</svg>