<?xml version="1.0" encoding="UTF-8"?>
<svg width="12px" height="12px" viewBox="0 0 12 12" version="1.1" xmlns="http://www.w3.org/2000/svg" xmlns:xlink="http://www.w3.org/1999/xlink">
    <!-- Generator: Sketch 55.2 (78181) - https://sketchapp.com -->
    <title>lock</title>
    <desc>Created with Sketch.</desc>
    <g id="Style" stroke="none" stroke-width="1" fill="none" fill-rule="evenodd">
        <g id="0-UI-icons" transform="translate(-993.000000, -494.000000)" fill="#000000">
            <path d="M1000.875,498 L1000.3125,498 L1000.3125,496.857143 C1000.3125,495.257143 999.075,494 997.5,494 C995.925,494 994.6875,495.257143 994.6875,496.857143 L994.6875,498 L994.125,498 C993.50625,498 993,498.514286 993,499.142857 L993,504.857143 C993,505.485714 993.50625,506 994.125,506 L1000.875,506 C1001.49375,506 1002,505.485714 1002,504.857143 L1002,499.142857 C1002,498.514286 1001.49375,498 1000.875,498 L1000.875,498 Z M997.5,495.085714 C998.45625,495.085714 999.24375,495.885714 999.24375,496.857143 L999.24375,498 L995.8125,498 L995.8125,496.857143 L995.75625,496.857143 C995.75625,495.885714 996.54375,495.085714 997.5,495.085714 L997.5,495.085714 Z M1000.875,504.857143 L994.125,504.857143 L994.125,499.142857 L1000.875,499.142857 L1000.875,504.857143 L1000.875,504.857143 Z M997.5,503.142857 C998.11875,503.142857 998.625,502.628571 998.625,502 C998.625,501.371429 998.11875,500.857143 997.5,500.857143 C996.88125,500.857143 996.375,501.371429 996.375,502 C996.375,502.628571 996.88125,503.142857 997.5,503.142857 L997.5,503.142857 Z" id="lock"></path>
        </g>
    </g>
</svg>