<!-- Generated by IcoMoon.io -->
<svg version="1.1" xmlns="http://www.w3.org/2000/svg" width="32" height="32" viewBox="0 0 32 32">
<title>people</title>
<path d="M21.818 14.545c2.473 0 4.364-1.891 4.364-4.364s-1.891-4.364-4.364-4.364c-2.473 0-4.364 1.891-4.364 4.364s1.891 4.364 4.364 4.364v0zM10.182 14.545c2.473 0 4.364-1.891 4.364-4.364s-1.891-4.364-4.364-4.364c-2.473 0-4.364 1.891-4.364 4.364s1.891 4.364 4.364 4.364v0zM10.182 17.455c-3.345 0-10.182 1.745-10.182 5.091v3.636h20.364v-3.636c0-3.345-6.836-5.091-10.182-5.091v0zM21.818 17.455c-0.436 0-0.873 0-1.455 0.145 1.745 1.164 2.909 2.909 2.909 4.945v3.636h8.727v-3.636c0-3.345-6.836-5.091-10.182-5.091v0z"></path>
</svg>
