<?xml version="1.0" encoding="UTF-8"?>
<svg width="16px" height="16px" viewBox="0 0 16 16" version="1.1" xmlns="http://www.w3.org/2000/svg" xmlns:xlink="http://www.w3.org/1999/xlink">
    <!-- Generator: Sketch 55.1 (78136) - https://sketchapp.com -->
    <title>preview</title>
    <desc>Created with Sketch.</desc>
    <g id="Style" stroke="none" stroke-width="1" fill-rule="evenodd">
        <g id="0-UI-icons" transform="translate(-138.000000, -356.000000)" fill-rule="nonzero">
            <g id="Top-navigation" transform="translate(43.000000, 309.000000)">
                <path d="M97,47 L109,47 C110.104569,47 111,47.8954305 111,49 L111,61 C111,62.1045695 110.104569,63 109,63 L97,63 C95.8954305,63 95,62.1045695 95,61 L95,49 C95,47.8954305 95.8954305,47 97,47 Z M97,48 C96.4477153,48 96,48.4477153 96,49 L96,61 C96,61.5522847 96.4477153,62 97,62 L109,62 C109.552285,62 110,61.5522847 110,61 L110,49 C110,48.4477153 109.552285,48 109,48 L97,48 Z M106.785423,54.5712535 C106.855797,54.6134784 106.914696,54.6723773 106.956921,54.7427521 C107.098995,54.9795423 107.022213,55.2866724 106.785423,55.4287465 L100.757248,59.0456513 C100.67954,59.0922759 100.590622,59.1169048 100.5,59.1169048 C100.223858,59.1169048 100,58.8930472 100,58.6169048 L100,51.3830952 C100,51.2924732 100.024629,51.203555 100.071254,51.1258473 C100.213328,50.8890572 100.520458,50.8122746 100.757248,50.9543487 L106.785423,54.5712535 Z M101,52.2661904 L101,57.7338096 L105.556349,55 L101,52.2661904 Z" id="preview"></path>
            </g>
        </g>
    </g>
</svg>