<?xml version="1.0" encoding="utf-8"?>
<!-- Generator: Adobe Illustrator 23.0.3, SVG Export Plug-In . SVG Version: 6.00 Build 0)  -->
<svg version="1.1" id="Layer_1" xmlns="http://www.w3.org/2000/svg" xmlns:xlink="http://www.w3.org/1999/xlink" x="0px" y="0px"
	 viewBox="0 0 16 16" style="enable-background:new 0 0 16 16;" xml:space="preserve">
<path id="redo" d="M15,4.1V0.5C15,0.2,15.2,0,15.5,0S16,0.2,16,0.5V5c0,0.6-0.4,1-1,1h-4.5C10.2,6,10,5.8,10,5.5S10.2,5,10.5,5h3.8
	C13.2,2.6,10.8,1,8,1C4.1,1,1,4.1,1,8c0,3.5,2.6,6.5,6,6.9c0.1,0,0.3,0,0.5,0C7.8,15,8,15.2,8,15.5c0,0,0,0,0,0
	C8,15.8,7.8,16,7.5,16v0c0,0,0,0-0.1,0C3.3,15.7,0,12.2,0,8c0-4.4,3.6-8,8-8C11,0,13.6,1.7,15,4.1L15,4.1z"/>
</svg>
