<?xml version="1.0" encoding="UTF-8"?>
<svg width="16px" height="16px" viewBox="0 0 16 16" version="1.1" xmlns="http://www.w3.org/2000/svg" xmlns:xlink="http://www.w3.org/1999/xlink">
    <!-- Generator: Sketch 55.1 (78136) - https://sketchapp.com -->
    <title>save</title>
    <desc>Created with Sketch.</desc>
    <g id="Style" stroke="none" stroke-width="1" fill-rule="evenodd">
        <g id="0-UI-icons" transform="translate(-102.000000, -356.000000)">
            <g id="Top-navigation" transform="translate(43.000000, 309.000000)">
                <path d="M62,48 L61,48 C60.4477153,48 60,48.4477153 60,49 L60,61 C60,61.5522847 60.4477153,62 61,62 L73,62 C73.5522847,62 74,61.5522847 74,61 L74,49 C74,48.4477153 73.5522847,48 73,48 L72,48 L72,53 C72,53.5522847 71.5522847,54 71,54 L63,54 C62.4477153,54 62,53.5522847 62,53 L62,48 Z M69,48 L70,48 L70,51.5 C70,51.7761424 69.7761424,52 69.5,52 C69.2238576,52 69,51.7761424 69,51.5 L69,48 Z M61,47 L73,47 C74.1045695,47 75,47.8954305 75,49 L75,61 C75,62.1045695 74.1045695,63 73,63 L61,63 C59.8954305,63 59,62.1045695 59,61 L59,49 C59,47.8954305 59.8954305,47 61,47 Z M63,48 L63,53 L71,53 L71,48 L63,48 Z" id="save"></path>
            </g>
        </g>
    </g>
</svg>