<?xml version="1.0" encoding="UTF-8"?>
<svg width="16px" height="16px" viewBox="0 0 16 16" version="1.1" xmlns="http://www.w3.org/2000/svg" xmlns:xlink="http://www.w3.org/1999/xlink">
    <!-- Generator: Sketch 55.1 (78136) - https://sketchapp.com -->
    <title>search-16</title>
    <desc>Created with Sketch.</desc>
    <g id="Style" stroke="none" stroke-width="1" fill="none" fill-rule="evenodd">
        <g id="0-UI-icons" transform="translate(-1018.000000, -301.000000)" fill="#000000">
            <path d="M1030.19563,313.195633 C1030.39739,312.993881 1030.72449,312.993881 1030.92624,313.195633 L1033.84869,316.118075 C1034.05044,316.319828 1034.05044,316.646933 1033.84869,316.848686 C1033.64693,317.050438 1033.31983,317.050438 1033.11808,316.848686 L1030.19563,313.926244 C1029.99388,313.724491 1029.99388,313.397386 1030.19563,313.195633 Z M1029.46502,312.465023 C1026.84224,315.087805 1022.58987,315.087805 1019.96709,312.465023 C1017.3443,309.84224 1017.3443,305.58987 1019.96709,302.967087 C1022.58987,300.344304 1026.84224,300.344304 1029.46502,302.967087 C1032.08781,305.58987 1032.08781,309.84224 1029.46502,312.465023 Z M1028.73441,311.734412 C1030.95369,309.515135 1030.95369,305.916975 1028.73441,303.697697 C1026.51513,301.47842 1022.91697,301.47842 1020.6977,303.697697 C1018.47842,305.916975 1018.47842,309.515135 1020.6977,311.734412 C1022.91697,313.95369 1026.51513,313.95369 1028.73441,311.734412 Z" id="search-16"></path>
        </g>
    </g>
</svg>