<!-- Generated by IcoMoon.io -->
<svg version="1.1" xmlns="http://www.w3.org/2000/svg" width="28" height="32" viewBox="0 0 28 32">
<title>section</title>
<path d="M1.2 0c8.497 0 17.103 0 25.6 0 0 8.465 0 16.826 0 25.29-2.317 2.271-4.634 4.439-6.952 6.71-6.179 0-12.469 0-18.648 0 0-10.632 0-21.265 0-32zM3.297 1.961c0 9.29 0 18.684 0 27.974 4.634 0 9.269 0 13.903 0 0-2.374 0-4.645 0-7.019 2.538 0 4.966 0 7.503 0 0-7.019 0-13.935 0-20.955-7.172 0-14.234 0-21.407 0zM19.297 24.981c0 1.548 0 3.097 0 4.645 1.655-1.548 3.2-3.097 4.855-4.645-1.545 0-3.2 0-4.855 0z"></path>
</svg>
