<svg width="8" height="10" viewBox="0 0 8 10" xmlns="http://www.w3.org/2000/svg">
  <path d="M3.75 5.5H.5C.223858 5.5 0 5.276142 0 5s.223858-.5.5-.5h1.128581C1.235909 4.02453 1 3.414815 1 2.75 1 1.231217 2.231217 0 3.75 0c.993937 0 1.761063.423387 2.30138 1.27016.154709.242454.083576.564417-.158879.719125-.007143.004558-.014396.008941-.021752.013144-.203129.116074-.461893.045502-.577966-.157627-.004526-.00792-.008794-.015984-.012799-.024179C5.012607 1.273545 4.502621 1 3.75 1 2.783502 1 2 1.783502 2 2.75S2.783502 4.5 3.75 4.5H7.5c.276142 0 .5.223858.5.5s-.223858.5-.5.5H5.871419C6.264091 5.97547 6.5 6.585185 6.5 7.25 6.5 8.768783 5.268783 10 3.75 10c-1.212165 0-2.047291-.412083-2.505376-1.236248l-.000019.000011c-.11717-.210806-.041262-.476683.169544-.593853a.43665708.43665708 0 0 1 .099634-.040252c.240787-.06421.494981.038852.623063.252619C2.383604 8.794091 2.921319 9 3.75 9c.966498 0 1.75-.783502 1.75-1.75S4.716498 5.5 3.75 5.5z"/>
</svg>