<svg width="10" height="10" viewBox="0 0 10 10" xmlns="http://www.w3.org/2000/svg">
  <path d="M3.5 1h6c.27614 0 .5.223858.5.5s-.22386.5-.5.5h-6c-.27614 0-.5-.223858-.5-.5s.22386-.5.5-.5zM1 2.5c.55228 0 1-.447715 1-1s-.44772-1-1-1-1 .447715-1 1 .44772 1 1 1zM1 6c.55228 0 1-.447715 1-1s-.44772-1-1-1-1 .447715-1 1 .44772 1 1 1zm0 3.5c-.55228 0-1-.447715-1-1s.44772-1 1-1 1 .447715 1 1-.44772 1-1 1zm2.5-5h6c.27614 0 .5.223858.5.5s-.22386.5-.5.5h-6c-.27614 0-.5-.223858-.5-.5s.22386-.5.5-.5zm0 3.5h6c.27614 0 .5.223858.5.5s-.22386.5-.5.5h-6c-.27614 0-.5-.223858-.5-.5s.22386-.5.5-.5z"/>
</svg>