<svg width="10" height="10" viewBox="0 0 10 10" xmlns="http://www.w3.org/2000/svg">
  <path d="M3.5 1h6a.5.5 0 0 1 0 1h-6a.5.5 0 0 1 0-1zM.9054 2.8V.7435l-.5457.4034L0 .6763.9633 0H1.6v2.8H.9054zM.057 6.4v-.5392l1.0475-.9629c.0657-.0642.1189-.1296.1594-.1964a.4224.4224 0 0 0 .0607-.2234c0-.0975-.0304-.1765-.0911-.2368-.0607-.0604-.1417-.0905-.2429-.0905-.1062 0-.1929.0378-.26.1136-.067.0757-.1068.1752-.1195.2985L0 4.478c.0152-.1386.0525-.2619.112-.3697a.9519.9519 0 0 1 .2258-.2754.9715.9715 0 0 1 .313-.1733A1.1587 1.1587 0 0 1 1.0247 3.6c.124 0 .2441.0167.3605.05a.9331.9331 0 0 1 .3112.1541.7661.7661 0 0 1 .2182.262c.0544.1052.0816.2284.0816.3697 0 .0975-.0127.1855-.038.2638a.8822.8822 0 0 1-.1043.2176 1.2507 1.2507 0 0 1-.1518.1868 5.6642 5.6642 0 0 1-.1765.1714l-.6224.5623H2V6.4H.057zM2 9.1555c0 .1451-.0284.2709-.0853.3772a.7858.7858 0 0 1-.2232.2627.9692.9692 0 0 1-.3104.154A1.2362 1.2362 0 0 1 1.031 10a1.394 1.394 0 0 1-.3394-.0413 1.0506 1.0506 0 0 1-.3013-.1257.884.884 0 0 1-.2377-.2177C.0847 9.5265.0339 9.4195 0 9.2943l.5662-.1538c.0242.0876.0738.1645.1489.2308.075.0663.1706.0995.2867.0995a.4907.4907 0 0 0 .1325-.0188.3588.3588 0 0 0 .1198-.0582.3116.3116 0 0 0 .0871-.1032c.023-.0425.0345-.095.0345-.1576 0-.0676-.0151-.1239-.0454-.169a.3248.3248 0 0 0-.1198-.1069.5747.5747 0 0 0-.1688-.0563 1.0694 1.0694 0 0 0-.1887-.0169H.6897v-.4616h.1778c.058 0 .1138-.0044.167-.0132a.4345.4345 0 0 0 .1434-.0488.2814.2814 0 0 0 .1016-.0957c.0254-.04.0381-.0926.0381-.1576 0-.0951-.0327-.1677-.098-.2177a.36.36 0 0 0-.225-.075c-.0872 0-.1628.0268-.2269.0806-.0641.0538-.1059.1257-.1252.2158l-.5663-.1351c.0315-.1126.0787-.2108.1416-.2946a.8819.8819 0 0 1 .2232-.2102 1.0135 1.0135 0 0 1 .2813-.1276A1.1404 1.1404 0 0 1 1.0345 7.2c.1137 0 .2244.015.3321.045a.8774.8774 0 0 1 .2886.139.7246.7246 0 0 1 .205.2345c.052.0938.078.2046.078.3322 0 .1476-.0404.272-.1215.3734a.5907.5907 0 0 1-.3103.2046v.0112a.649.649 0 0 1 .1996.0845.6514.6514 0 0 1 .156.1389.6241.6241 0 0 1 .1017.1801A.6137.6137 0 0 1 2 9.1555zM3.5 4.5h6a.5.5 0 0 1 0 1h-6a.5.5 0 0 1 0-1zm0 3.5h6a.5.5 0 0 1 0 1h-6a.5.5 0 0 1 0-1z"/>
</svg>