<?xml version="1.0" encoding="utf-8"?>
<!-- Generator: Adobe Illustrator 23.0.3, SVG Export Plug-In . SVG Version: 6.00 Build 0)  -->
<svg version="1.1" id="Layer_1" xmlns="http://www.w3.org/2000/svg" xmlns:xlink="http://www.w3.org/1999/xlink" x="0px" y="0px"
	 viewBox="0 0 16 16" style="enable-background:new 0 0 16 16;" xml:space="preserve">
<path id="undo" d="M1,4.1C2.4,1.7,5,0,8,0c4.4,0,8,3.6,8,8c0,4.2-3.3,7.7-7.4,8c0,0,0,0,0,0C8.2,16,8,15.8,8,15.5c0,0,0,0,0,0
	C8,15.2,8.2,15,8.5,15c0.2,0,0.4,0,0.5,0c3.4-0.5,6-3.4,6-6.9c0-3.9-3.1-7-7-7C5.2,1,2.8,2.6,1.7,5H1.3h4.2C5.8,5,6,5.2,6,5.5
	S5.8,6,5.5,6H1C0.4,6,0,5.6,0,5V0.5C0,0.2,0.2,0,0.5,0S1,0.2,1,0.5V4.1z"/>
</svg>
