<?xml version="1.0" encoding="UTF-8"?>
<svg width="12px" height="12px" viewBox="0 0 12 12" version="1.1" xmlns="http://www.w3.org/2000/svg" xmlns:xlink="http://www.w3.org/1999/xlink">
    <!-- Generator: Sketch 55.2 (78181) - https://sketchapp.com -->
    <title>unlock</title>
    <desc>Created with Sketch.</desc>
    <g id="Style" stroke="none" stroke-width="1" fill="none" fill-rule="evenodd">
        <g id="0-UI-icons" transform="translate(-992.000000, -494.000000)" fill="#000000">
            <path d="M998.244,496.857143 C998.244,495.257143 999.5112,494 1001.124,494 C1002.53956,494 1003.68889,494.968461 1003.94883,496.287185 C1003.99984,496.545993 1003.8314,496.797153 1003.57259,496.848168 C1003.54216,496.854166 1003.51123,496.857186 1003.48022,496.857143 L1003.4568,496.857143 C1003.16667,496.857143 1002.91346,496.660449 1002.8417,496.379336 C1002.83661,496.359374 1002.83132,496.340904 1002.82585,496.323925 C1002.59542,495.609431 1001.91627,495.085714 1001.124,495.085714 C1000.1448,495.085714 999.3384,495.885714 999.3384,496.857143 L999.3384,497 L999.3125,497 L999.3125,498 L999.875,498 C1000.49375,498 1001,498.514286 1001,499.142857 L1001,504.857143 C1001,505.485714 1000.49375,506 999.875,506 L993.125,506 C992.50625,506 992,505.485714 992,504.857143 L992,499.142857 C992,498.514286 992.50625,498 993.125,498 L998.24375,498 L998.24375,497 L998.244,496.857143 Z M997.625,502 C997.625,502.628571 997.11875,503.142857 996.5,503.142857 C995.88125,503.142857 995.375,502.628571 995.375,502 C995.375,501.371429 995.88125,500.857143 996.5,500.857143 C997.11875,500.857143 997.625,501.371429 997.625,502 Z M993.125,504.857143 L999.875,504.857143 L999.875,499.142857 L993.125,499.142857 L993.125,504.857143 Z" id="unlock"></path>
        </g>
    </g>
</svg>