<svg width="9" height="10" viewBox="0 0 9 10" xmlns="http://www.w3.org/2000/svg">
  <path d="M6.885608 7H2.114392L1.026208 9.622834C.931699 9.850629.702862 10 .448387 10H.351116C.1572 10 0 9.848441 0 9.661484c0-.043066.008523-.085737.025113-.125722L3.78265.479019C3.902964.189029 4.186041 0 4.5 0c.313959 0 .597036.189029.71735.479019l3.757537 9.056743C8.991477 9.575747 9 9.618418 9 9.661484 9 9.848441 8.8428 10 8.648884 10h-.097271c-.254475 0-.483312-.149371-.577821-.377166L6.885608 7zM6.47072 6L4.5 1.25 2.52928 6h3.94144z"/>
</svg>