<?xml version="1.0" encoding="UTF-8"?>
<svg width="238px" height="160px" viewBox="0 0 238 160" version="1.1" xmlns="http://www.w3.org/2000/svg" xmlns:xlink="http://www.w3.org/1999/xlink">
    <!-- Generator: Sketch 55.2 (78181) - https://sketchapp.com -->
    <title>blank-full-screen</title>
    <desc>Created with Sketch.</desc>
    <g id="Style" stroke="none" stroke-width="1" fill="none" fill-rule="evenodd">
        <g id="00-EXB-Icon-&amp;-Thumbnail" transform="translate(-40.000000, -1920.000000)">
            <g id="blank-full-screen" transform="translate(40.000000, 1920.000000)">
                <rect id="Background" fill="#F9FEFF" x="0" y="0" width="238" height="160"></rect>
                <rect id="window" stroke="#AADFEF" fill="#F5FEFF" fill-rule="nonzero" x="10.5" y="10.5" width="217" height="139" rx="10"></rect>
                <g id="T1" transform="translate(10.000000, 26.000000)">
                    <path d="M0,0 L40,0 L40,123 L8,123 C3.581722,123 5.41083001e-16,119.418278 0,115 L0,0 Z" id="Rectangle" fill="#00C9DD" opacity="0.04"></path>
                    <path d="M178,0 L218,0 L218,115 C218,119.418278 214.418278,123 210,123 L178,123 L178,0 Z" id="Rectangle" fill="#00C9DD" opacity="0.04"></path>
                    <path d="M39.2057762,0 L39.2057762,123" id="Dash-line" stroke="#00C9DD" stroke-linecap="square" stroke-dasharray="3,3"></path>
                    <path d="M178.794224,0 L178.794224,123" id="Dash-line" stroke="#00C9DD" stroke-linecap="square" stroke-dasharray="3,3"></path>
                    <path d="M59,18 L159,18 L159,58 L59,58 L59,18 Z M59,66 L105,66 L105,106 L59,106 L59,66 Z M113,66 L159,66 L159,106 L113,106 L113,66 Z" id="Layout" fill-opacity="0.4" fill="#00C9DD"></path>
                    <rect id="Scroll-bar" fill-opacity="0.4" fill="#00C9DD" x="210" y="6" width="4" height="60" rx="2"></rect>
                </g>
                <g id="Title" transform="translate(10.000000, 10.000000)" fill-rule="nonzero">
                    <path d="M0.5,15.5 L217.5,15.5 L217.5,10 C217.5,4.75329488 213.246705,0.5 208,0.5 L10,0.5 C4.75329488,0.5 0.5,4.75329488 0.5,10 L0.5,15.5 Z" id="title" stroke="#AADFEF" fill-opacity="0.1" fill="#00C9DD"></path>
                    <path d="M15,11 C13.3431458,11 12,9.65685425 12,8 C12,6.34314575 13.3431458,5 15,5 C16.6568542,5 18,6.34314575 18,8 C18,9.65685425 16.6568542,11 15,11 Z M27,11 C25.3431458,11 24,9.65685425 24,8 C24,6.34314575 25.3431458,5 27,5 C28.6568542,5 30,6.34314575 30,8 C30,9.65685425 28.6568542,11 27,11 Z M39,11 C37.3431458,11 36,9.65685425 36,8 C36,6.34314575 37.3431458,5 39,5 C40.6568542,5 42,6.34314575 42,8 C42,9.65685425 40.6568542,11 39,11 Z" id="buttons" fill="#00A6B6" opacity="0.3"></path>
                </g>
            </g>
        </g>
    </g>
</svg>