<?xml version="1.0" encoding="UTF-8"?>
<svg width="16px" height="16px" viewBox="0 0 16 16" version="1.1" xmlns="http://www.w3.org/2000/svg" xmlns:xlink="http://www.w3.org/1999/xlink">
    <!-- Generator: Sketch 52.3 (67297) - http://www.bohemiancoding.com/sketch -->
    <title>Widget_Menu</title>
    <desc>Created with Sketch.</desc>
    <g id="Style" stroke="none" stroke-width="1" fill="none" fill-rule="evenodd">
        <g id="UI-icons" transform="translate(-1037.000000, -763.000000)" fill="#FFFFFF" fill-rule="nonzero">
            <path d="M1039,764 C1038.44772,764 1038,764.447715 1038,765 C1038,765.552285 1038.44772,766 1039,766 L1051,766 C1051.55228,766 1052,765.552285 1052,765 C1052,764.447715 1051.55228,764 1051,764 L1039,764 Z M1039,763 L1051,763 C1052.10457,763 1053,763.895431 1053,765 C1053,766.104569 1052.10457,767 1051,767 L1039,767 C1037.89543,767 1037,766.104569 1037,765 C1037,763.895431 1037.89543,763 1039,763 Z M1039,770 C1038.44772,770 1038,770.447715 1038,771 C1038,771.552285 1038.44772,772 1039,772 L1051,772 C1051.55228,772 1052,771.552285 1052,771 C1052,770.447715 1051.55228,770 1051,770 L1039,770 Z M1039,769 L1051,769 C1052.10457,769 1053,769.895431 1053,771 C1053,772.104569 1052.10457,773 1051,773 L1039,773 C1037.89543,773 1037,772.104569 1037,771 C1037,769.895431 1037.89543,769 1039,769 Z M1039,776 C1038.44772,776 1038,776.447715 1038,777 C1038,777.552285 1038.44772,778 1039,778 L1051,778 C1051.55228,778 1052,777.552285 1052,777 C1052,776.447715 1051.55228,776 1051,776 L1039,776 Z M1039,775 L1051,775 C1052.10457,775 1053,775.895431 1053,777 C1053,778.104569 1052.10457,779 1051,779 L1039,779 C1037.89543,779 1037,778.104569 1037,777 C1037,775.895431 1037.89543,775 1039,775 Z" id="Widget_Menu"></path>
        </g>
    </g>
</svg>