<?xml version="1.0" encoding="UTF-8"?>
<svg width="16px" height="16px" viewBox="0 0 16 16" version="1.1" xmlns="http://www.w3.org/2000/svg" xmlns:xlink="http://www.w3.org/1999/xlink">
    <!-- Generator: Sketch 52.3 (67297) - http://www.bohemiancoding.com/sketch -->
    <title>Widget_InfoCard</title>
    <desc>Created with Sketch.</desc>
    <g id="Style" stroke="none" stroke-width="1" fill="none" fill-rule="evenodd">
        <g id="UI-icons" transform="translate(-1065.000000, -789.000000)" fill="#FFFFFF" fill-rule="nonzero">
            <path d="M1067,790 C1066.44772,790 1066,790.447715 1066,791 L1066,803 C1066,803.552285 1066.44772,804 1067,804 L1079,804 C1079.55228,804 1080,803.552285 1080,803 L1080,791 C1080,790.447715 1079.55228,790 1079,790 L1067,790 Z M1067,789 L1079,789 C1080.10457,789 1081,789.895431 1081,791 L1081,803 C1081,804.104569 1080.10457,805 1079,805 L1067,805 C1065.89543,805 1065,804.104569 1065,803 L1065,791 C1065,789.895431 1065.89543,789 1067,789 Z M1073,800.5 L1073,795.5 L1071.5,795.5 C1071.22386,795.5 1071,795.276142 1071,795 C1071,794.723858 1071.22386,794.5 1071.5,794.5 L1073,794.5 C1073.55228,794.5 1074,794.947715 1074,795.5 L1074,800.5 L1074.5,800.5 C1074.77614,800.5 1075,800.723858 1075,801 C1075,801.276142 1074.77614,801.5 1074.5,801.5 L1071.5,801.5 C1071.22386,801.5 1071,801.276142 1071,801 C1071,800.723858 1071.22386,800.5 1071.5,800.5 L1073,800.5 Z M1072.5,792.5 L1073.5,792.5 C1073.77614,792.5 1074,792.723858 1074,793 C1074,793.276142 1073.77614,793.5 1073.5,793.5 L1072.5,793.5 C1072.22386,793.5 1072,793.276142 1072,793 C1072,792.723858 1072.22386,792.5 1072.5,792.5 Z" id="Widget_InfoCard"></path>
        </g>
    </g>
</svg>