<?xml version="1.0" encoding="UTF-8"?>
<svg width="16px" height="16px" viewBox="0 0 16 16" version="1.1" xmlns="http://www.w3.org/2000/svg" xmlns:xlink="http://www.w3.org/1999/xlink">
    <!-- Generator: Sketch 54.1 (76490) - https://sketchapp.com -->
    <title>widget-controller</title>
    <desc>Created with Sketch.</desc>
    <g id="Style" stroke="none" stroke-width="1" fill="none" fill-rule="evenodd">
        <g id="0-UI-icons" transform="translate(-245.000000, -808.000000)" fill="#FFFFFF" fill-rule="nonzero">
            <path d="M247,808 L259,808 C260.104569,808 261,808.895431 261,810 L261,822 C261,823.104569 260.104569,824 259,824 L247,824 C245.895431,824 245,823.104569 245,822 L245,810 C245,808.895431 245.895431,808 247,808 Z M247,809 C246.447715,809 246,809.447715 246,810 L246,822 C246,822.552285 246.447715,823 247,823 L259,823 C259.552285,823 260,822.552285 260,822 L260,810 C260,809.447715 259.552285,809 259,809 L247,809 Z M248,810 L251,810 C251.552285,810 252,810.447715 252,811 L252,814 C252,814.552285 251.552285,815 251,815 L248,815 C247.447715,815 247,814.552285 247,814 L247,811 C247,810.447715 247.447715,810 248,810 Z M248,811 L248,814 L251,814 L251,811 L248,811 Z M248,817 L251,817 C251.552285,817 252,817.447715 252,818 L252,821 C252,821.552285 251.552285,822 251,822 L248,822 C247.447715,822 247,821.552285 247,821 L247,818 C247,817.447715 247.447715,817 248,817 Z M248,818 L248,821 L251,821 L251,818 L248,818 Z M255,810 L258,810 C258.552285,810 259,810.447715 259,811 L259,814 C259,814.552285 258.552285,815 258,815 L255,815 C254.447715,815 254,814.552285 254,814 L254,811 C254,810.447715 254.447715,810 255,810 Z M255,811 L255,814 L258,814 L258,811 L255,811 Z M256.5,822 C255.119288,822 254,820.880712 254,819.5 C254,818.119288 255.119288,817 256.5,817 C257.880712,817 259,818.119288 259,819.5 C259,820.880712 257.880712,822 256.5,822 Z M256.5,821 C257.328427,821 258,820.328427 258,819.5 C258,818.671573 257.328427,818 256.5,818 C255.671573,818 255,818.671573 255,819.5 C255,820.328427 255.671573,821 256.5,821 Z" id="widget-controller"></path>
        </g>
    </g>
</svg>