<?xml version="1.0" encoding="UTF-8"?>
<svg width="16px" height="16px" viewBox="0 0 16 16" version="1.1" xmlns="http://www.w3.org/2000/svg" xmlns:xlink="http://www.w3.org/1999/xlink">
    <!-- Generator: Sketch 52.3 (67297) - http://www.bohemiancoding.com/sketch -->
    <title>Section</title>
    <desc>Created with Sketch.</desc>
    <g id="Style" stroke="none" stroke-width="1" fill="none" fill-rule="evenodd">
        <g id="UI-icons" transform="translate(-1036.000000, -847.000000)" fill="#FFFFFF" fill-rule="nonzero">
            <path d="M1041,857 L1041,854 C1041,852.895431 1041.89543,852 1043,852 L1046,852 L1046,849 C1046,848.447715 1045.55228,848 1045,848 L1038,848 C1037.44772,848 1037,848.447715 1037,849 L1037,856 C1037,856.552285 1037.44772,857 1038,857 L1041,857 Z M1042,857 L1045,857 C1045.55228,857 1046,856.552285 1046,856 L1046,853 L1043,853 C1042.44772,853 1042,853.447715 1042,854 L1042,857 Z M1047,852 L1050,852 C1051.10457,852 1052,852.895431 1052,854 L1052,861 C1052,862.104569 1051.10457,863 1050,863 L1043,863 C1041.89543,863 1041,862.104569 1041,861 L1041,858 L1038,858 C1036.89543,858 1036,857.104569 1036,856 L1036,849 C1036,847.895431 1036.89543,847 1038,847 L1045,847 C1046.10457,847 1047,847.895431 1047,849 L1047,852 Z M1047,853 L1047,856 C1047,857.104569 1046.10457,858 1045,858 L1042,858 L1042,861 C1042,861.552285 1042.44772,862 1043,862 L1050,862 C1050.55228,862 1051,861.552285 1051,861 L1051,854 C1051,853.447715 1050.55228,853 1050,853 L1047,853 Z" id="Section"></path>
        </g>
    </g>
</svg>